# xmcd
#
# Track frame offsets: 
#        150
#        12900
#        24375
#        38325
#        53400
#        64012
#        79800
#        90675
#        111037
#        120975
#        136425
#
# Disc length: 1957 seconds
#
# Revision: 3
# Processed by: cddbd v1.5.1PL0 Copyright (c) Steve Scherf et al.
# Submitted via: ExactAudioCopy v0.95a5
#
DISCID=7907a30b
DTITLE=Crowe, J.D. and the New South - J.D. Crowe and the New South
DYEAR=1986
DGENRE=Bluegrass
TTITLE0=Old Home Place
TTITLE1=Some Old Day
TTITLE2=Rock Salt and Nails
TTITLE3=Sally Goodin
TTITLE4=Ten Degrees
TTITLE5=Nashville Blues
TTITLE6=You Are What I Am
TTITLE7=Summer Wages
TTITLE8=I'm Walkin'
TTITLE9=Home Sweet Home Revisited
TTITLE10=Cryin' Holy
EXTD=YEAR: 1986 ID3G: 89
EXTT0=
EXTT1=
EXTT2=
EXTT3=
EXTT4=
EXTT5=
EXTT6=
EXTT7=
EXTT8=
EXTT9=
EXTT10=
PLAYORDER=
